<svg xmlns="http://www.w3.org/2000/svg" viewBox="0 0 200 400">
  <defs>
    <linearGradient id="phoneGradient" x1="0%" y1="0%" x2="100%" y2="100%">
      <stop offset="0%" style="stop-color:#667eea;stop-opacity:1" />
      <stop offset="100%" style="stop-color:#764ba2;stop-opacity:1" />
    </linearGradient>
    <linearGradient id="screenGradient2" x1="0%" y1="0%" x2="100%" y2="100%">
      <stop offset="0%" style="stop-color:#1e3c72;stop-opacity:1" />
      <stop offset="100%" style="stop-color:#2a5298;stop-opacity:1" />
    </linearGradient>
  </defs>
  
  <!-- Phone Body -->
  <rect x="30" y="20" width="140" height="320" rx="25" fill="url(#phoneGradient)" stroke="#333" stroke-width="3"/>
  
  <!-- Screen -->
  <rect x="40" y="50" width="120" height="200" rx="15" fill="url(#screenGradient2)"/>
  
  <!-- Screen Content -->
  <rect x="45" y="55" width="110" height="190" fill="#000" rx="10"/>
  
  <!-- App Icons -->
  <rect x="55" y="70" width="20" height="20" fill="#ff6b6b" rx="3"/>
  <rect x="85" y="70" width="20" height="20" fill="#4ecdc4" rx="3"/>
  <rect x="115" y="70" width="20" height="20" fill="#45b7d1" rx="3"/>
  
  <rect x="55" y="100" width="20" height="20" fill="#96ceb4" rx="3"/>
  <rect x="85" y="100" width="20" height="20" fill="#feca57" rx="3"/>
  <rect x="115" y="100" width="20" height="20" fill="#ff9ff3" rx="3"/>
  
  <rect x="55" y="130" width="20" height="20" fill="#54a0ff" rx="3"/>
  <rect x="85" y="130" width="20" height="20" fill="#5f27cd" rx="3"/>
  <rect x="115" y="130" width="20" height="20" fill="#00d2d3" rx="3"/>
  
  <!-- Home Button -->
  <circle cx="100" cy="280" r="8" fill="#34495e"/>
  
  <!-- Camera -->
  <circle cx="100" cy="30" r="3" fill="#2c3e50"/>
  
  <!-- Brand -->
  <text x="100" y="320" font-family="Arial, sans-serif" font-size="12" font-weight="bold" text-anchor="middle" fill="#2c3e50">📱 PHONE</text>
</svg>
